<svg width="334" height="37" viewBox="0 0 334 37" fill="none" xmlns="http://www.w3.org/2000/svg">
<path d="M46.4731 10.4457L36.3719 4.6267C35.6605 4.21688 34.4964 4.21688 33.785 4.6267L5.91814 20.68L21.339 8.86537L13.9811 4.6267C13.2697 4.21688 12.1056 4.21688 11.3942 4.6267L1.29295 10.4457C0.581548 10.8555 -0.000505775 11.8626 3.29799e-07 12.6827V24.3158C-0.000505736 25.1376 0.581548 26.1447 1.29295 26.5545L11.3942 32.3735C12.1056 32.7833 13.2697 32.7833 13.9811 32.3735L41.8479 16.3202L26.4271 28.1348L33.785 32.3735C34.4964 32.7833 35.6605 32.7833 36.3719 32.3735L46.4731 26.5545C47.1845 26.1447 47.7666 25.1376 47.7666 24.3167V12.6836C47.7666 11.8626 47.1845 10.8555 46.4731 10.4457Z" fill="#0B41AD"/>
<path d="M57.2606 7.77353H62.1878L68.7863 23.879H69.0467L75.6452 7.77353H80.5724V30H76.7088V14.7302H76.5026L70.3599 29.9349H67.4731L61.3304 14.6976H61.1242V30H57.2606V7.77353ZM89.5802 30.3364C88.5238 30.3364 87.5724 30.1483 86.7259 29.7721C85.8866 29.3886 85.221 28.8243 84.729 28.0791C84.2442 27.3338 84.0018 26.415 84.0018 25.3225C84.0018 24.3819 84.1755 23.6041 84.5228 22.9891C84.8701 22.3741 85.344 21.8821 85.9445 21.5131C86.545 21.1441 87.2215 20.8656 87.974 20.6775C88.7337 20.4821 89.5187 20.341 90.329 20.2542C91.3058 20.1529 92.098 20.0625 92.7058 19.9829C93.3135 19.8961 93.7549 19.7658 94.0298 19.5922C94.312 19.4113 94.4531 19.1328 94.4531 18.7565V18.6914C94.4531 17.8738 94.2107 17.2408 93.7259 16.7922C93.2412 16.3436 92.543 16.1193 91.6313 16.1193C90.6691 16.1193 89.9058 16.3291 89.3414 16.7488C88.7843 17.1684 88.4081 17.664 88.2127 18.2356L84.5445 17.7147C84.8339 16.7017 85.3114 15.8552 85.977 15.1751C86.6427 14.4878 87.4566 13.9741 88.4189 13.634C89.3812 13.2867 90.4448 13.1131 91.6096 13.1131C92.4127 13.1131 93.2122 13.2071 94.0081 13.3953C94.804 13.5834 95.5311 13.8945 96.1895 14.3286C96.8479 14.7555 97.3761 15.3379 97.774 16.0759C98.1792 16.8139 98.3818 17.7364 98.3818 18.8434V30H94.605V27.7101H94.4748C94.236 28.1731 93.8996 28.6072 93.4655 29.0124C93.0386 29.4103 92.4996 29.7323 91.8484 29.9783C91.2045 30.2171 90.4484 30.3364 89.5802 30.3364ZM90.6003 27.4496C91.389 27.4496 92.0727 27.294 92.6515 26.9829C93.2303 26.6646 93.6753 26.2449 93.9864 25.724C94.3047 25.2031 94.4639 24.6351 94.4639 24.0201V22.0558C94.3409 22.1571 94.1311 22.2511 93.8345 22.3379C93.545 22.4248 93.2195 22.5007 92.8577 22.5659C92.4959 22.631 92.1378 22.6889 91.7833 22.7395C91.4288 22.7901 91.1213 22.8336 90.8608 22.8697C90.2747 22.9493 89.7502 23.0796 89.2871 23.2604C88.8241 23.4413 88.4587 23.6945 88.191 24.0201C87.9233 24.3385 87.7895 24.7509 87.7895 25.2573C87.7895 25.9809 88.0535 26.5271 88.5817 26.8961C89.1099 27.2651 89.7828 27.4496 90.6003 27.4496ZM102.332 30V13.3301H106.141V16.1085H106.315C106.619 15.1462 107.14 14.4046 107.878 13.8836C108.623 13.3555 109.473 13.0914 110.428 13.0914C110.645 13.0914 110.888 13.1022 111.155 13.1239C111.43 13.1384 111.658 13.1637 111.839 13.1999V16.8139C111.673 16.756 111.409 16.7054 111.047 16.6619C110.692 16.6113 110.349 16.586 110.016 16.586C109.3 16.586 108.656 16.7415 108.084 17.0526C107.52 17.3565 107.075 17.7798 106.749 18.3224C106.424 18.8651 106.261 19.4909 106.261 20.1999V30H102.332ZM118.031 24.769L118.02 20.0263H118.649L124.64 13.3301H129.231L121.862 21.5348H121.048L118.031 24.769ZM114.449 30V7.77353H118.378V30H114.449ZM124.911 30L119.485 22.4139L122.133 19.6465L129.611 30H124.911ZM138.542 30.3256C136.871 30.3256 135.428 29.9783 134.212 29.2837C133.004 28.5819 132.074 27.5907 131.423 26.3101C130.772 25.0222 130.446 23.5064 130.446 21.7627C130.446 20.048 130.772 18.5431 131.423 17.248C132.081 15.9457 133 14.9327 134.18 14.2092C135.359 13.4785 136.744 13.1131 138.336 13.1131C139.364 13.1131 140.333 13.2795 141.245 13.6123C142.164 13.9379 142.974 14.4444 143.676 15.1317C144.385 15.819 144.942 16.6945 145.347 17.7581C145.752 18.8144 145.955 20.0733 145.955 21.5348V22.7395H132.291V20.0914H142.189C142.182 19.339 142.019 18.6697 141.701 18.0837C141.382 17.4904 140.937 17.0237 140.366 16.6837C139.801 16.3436 139.143 16.1736 138.39 16.1736C137.587 16.1736 136.882 16.3689 136.274 16.7596C135.666 17.1431 135.193 17.6495 134.852 18.279C134.52 18.9012 134.35 19.585 134.342 20.3302V22.6418C134.342 23.6113 134.52 24.4434 134.874 25.138C135.229 25.8253 135.724 26.3535 136.361 26.7225C136.998 27.0842 137.743 27.2651 138.597 27.2651C139.168 27.2651 139.686 27.1855 140.149 27.0263C140.612 26.8599 141.013 26.6176 141.353 26.2992C141.693 25.9809 141.95 25.5865 142.124 25.1163L145.792 25.5287C145.561 26.4982 145.119 27.3447 144.468 28.0682C143.824 28.7845 142.999 29.3416 141.994 29.7395C140.988 30.1302 139.838 30.3256 138.542 30.3256ZM157.603 13.3301V16.3689H148.02V13.3301H157.603ZM150.386 9.33633H154.314V24.986C154.314 25.5142 154.394 25.9194 154.553 26.2015C154.719 26.4765 154.936 26.6646 155.204 26.7659C155.472 26.8672 155.768 26.9178 156.094 26.9178C156.34 26.9178 156.564 26.8997 156.767 26.8635C156.977 26.8274 157.136 26.7948 157.244 26.7659L157.906 29.8372C157.697 29.9096 157.396 29.9891 157.006 30.076C156.622 30.1628 156.152 30.2134 155.595 30.2279C154.611 30.2568 153.725 30.1085 152.936 29.7829C152.147 29.4501 151.521 28.9364 151.058 28.2419C150.603 27.5473 150.378 26.6791 150.386 25.6372V9.33633ZM173.141 13.8836C173.04 12.9358 172.613 12.1978 171.86 11.6697C171.115 11.1415 170.146 10.8774 168.952 10.8774C168.113 10.8774 167.393 11.004 166.792 11.2573C166.192 11.5105 165.732 11.8542 165.414 12.2883C165.096 12.7224 164.933 13.218 164.926 13.7751C164.926 14.2382 165.03 14.6397 165.24 14.9798C165.457 15.3198 165.75 15.6092 166.119 15.848C166.488 16.0795 166.897 16.2749 167.346 16.434C167.794 16.5932 168.246 16.7271 168.702 16.8356L170.786 17.3565C171.625 17.5519 172.432 17.816 173.206 18.1488C173.988 18.4816 174.686 18.9012 175.301 19.4077C175.923 19.9142 176.415 20.5255 176.777 21.2418C177.139 21.9581 177.319 22.7974 177.319 23.7597C177.319 25.062 176.987 26.2088 176.321 27.2C175.655 28.184 174.693 28.9545 173.434 29.5116C172.182 30.0615 170.667 30.3364 168.887 30.3364C167.158 30.3364 165.656 30.0687 164.383 29.5333C163.117 28.9979 162.126 28.2165 161.409 27.1891C160.7 26.1617 160.317 24.9101 160.259 23.4341H164.22C164.278 24.2082 164.517 24.8522 164.936 25.3659C165.356 25.8796 165.902 26.263 166.575 26.5163C167.255 26.7695 168.015 26.8961 168.854 26.8961C169.73 26.8961 170.497 26.7659 171.155 26.5054C171.821 26.2377 172.342 25.8687 172.718 25.3984C173.094 24.9209 173.286 24.3638 173.293 23.7271C173.286 23.1483 173.116 22.6708 172.783 22.2945C172.45 21.9111 171.983 21.5927 171.383 21.3395C170.79 21.079 170.095 20.8475 169.299 20.6449L166.77 19.9937C164.94 19.5235 163.493 18.8108 162.429 17.8558C161.373 16.8935 160.845 15.6165 160.845 14.0247C160.845 12.7152 161.199 11.5684 161.908 10.5844C162.625 9.60041 163.598 8.8371 164.828 8.29446C166.058 7.74459 167.451 7.46965 169.006 7.46965C170.583 7.46965 171.965 7.74459 173.152 8.29446C174.346 8.8371 175.283 9.59317 175.963 10.5627C176.643 11.525 176.994 12.632 177.016 13.8836H173.141ZM188.115 30.3256C186.444 30.3256 185 29.9783 183.785 29.2837C182.577 28.5819 181.647 27.5907 180.996 26.3101C180.345 25.0222 180.019 23.5064 180.019 21.7627C180.019 20.048 180.345 18.5431 180.996 17.248C181.654 15.9457 182.573 14.9327 183.752 14.2092C184.932 13.4785 186.317 13.1131 187.909 13.1131C188.936 13.1131 189.906 13.2795 190.818 13.6123C191.736 13.9379 192.547 14.4444 193.249 15.1317C193.958 15.819 194.515 16.6945 194.92 17.7581C195.325 18.8144 195.528 20.0733 195.528 21.5348V22.7395H181.864V20.0914H191.762C191.754 19.339 191.592 18.6697 191.273 18.0837C190.955 17.4904 190.51 17.0237 189.938 16.6837C189.374 16.3436 188.716 16.1736 187.963 16.1736C187.16 16.1736 186.455 16.3689 185.847 16.7596C185.239 17.1431 184.765 17.6495 184.425 18.279C184.092 18.9012 183.922 19.585 183.915 20.3302V22.6418C183.915 23.6113 184.092 24.4434 184.447 25.138C184.801 25.8253 185.297 26.3535 185.934 26.7225C186.57 27.0842 187.316 27.2651 188.169 27.2651C188.741 27.2651 189.258 27.1855 189.721 27.0263C190.184 26.8599 190.586 26.6176 190.926 26.2992C191.266 25.9809 191.523 25.5865 191.697 25.1163L195.365 25.5287C195.133 26.4982 194.692 27.3447 194.041 28.0682C193.397 28.7845 192.572 29.3416 191.566 29.7395C190.561 30.1302 189.41 30.3256 188.115 30.3256ZM202.78 20.2325V30H198.851V13.3301H202.606V16.1627H202.802C203.185 15.2294 203.797 14.4878 204.636 13.9379C205.482 13.388 206.528 13.1131 207.772 13.1131C208.923 13.1131 209.925 13.3591 210.778 13.8511C211.639 14.3431 212.305 15.0557 212.775 15.9891C213.253 16.9224 213.488 18.0547 213.481 19.386V30H209.552V19.9937C209.552 18.8795 209.263 18.0077 208.684 17.3782C208.112 16.7488 207.32 16.434 206.307 16.434C205.62 16.434 205.008 16.586 204.473 16.8899C203.945 17.1865 203.529 17.617 203.225 18.1813C202.928 18.7457 202.78 19.4294 202.78 20.2325ZM230.65 17.7364L227.068 18.1271C226.967 17.7653 226.79 17.4253 226.537 17.1069C226.291 16.7886 225.958 16.5317 225.538 16.3364C225.119 16.141 224.605 16.0433 223.997 16.0433C223.18 16.0433 222.492 16.2206 221.935 16.5751C221.385 16.9296 221.114 17.3891 221.121 17.9534C221.114 18.4382 221.291 18.8325 221.653 19.1364C222.022 19.4403 222.63 19.6899 223.476 19.8852L226.32 20.493C227.897 20.833 229.069 21.372 229.836 22.11C230.61 22.848 231.001 23.8139 231.008 25.0077C231.001 26.0568 230.693 26.9829 230.086 27.786C229.485 28.5819 228.649 29.2041 227.579 29.6527C226.508 30.1013 225.278 30.3256 223.889 30.3256C221.848 30.3256 220.206 29.8987 218.961 29.045C217.717 28.184 216.975 26.9865 216.737 25.4527L220.568 25.0837C220.741 25.8362 221.11 26.4041 221.675 26.7876C222.239 27.171 222.973 27.3628 223.878 27.3628C224.811 27.3628 225.56 27.171 226.124 26.7876C226.696 26.4041 226.982 25.9302 226.982 25.3659C226.982 24.8883 226.797 24.494 226.428 24.1829C226.066 23.8718 225.502 23.633 224.735 23.4666L221.892 22.8697C220.293 22.5369 219.11 21.9762 218.343 21.1876C217.576 20.3917 217.196 19.386 217.203 18.1705C217.196 17.1431 217.475 16.2532 218.039 15.5007C218.611 14.741 219.403 14.155 220.416 13.7426C221.436 13.3229 222.612 13.1131 223.943 13.1131C225.896 13.1131 227.434 13.5291 228.555 14.3612C229.684 15.1932 230.382 16.3183 230.65 17.7364ZM241.627 30.3256C239.956 30.3256 238.513 29.9783 237.297 29.2837C236.089 28.5819 235.159 27.5907 234.508 26.3101C233.857 25.0222 233.531 23.5064 233.531 21.7627C233.531 20.048 233.857 18.5431 234.508 17.248C235.166 15.9457 236.085 14.9327 237.265 14.2092C238.444 13.4785 239.83 13.1131 241.421 13.1131C242.449 13.1131 243.418 13.2795 244.33 13.6123C245.249 13.9379 246.059 14.4444 246.761 15.1317C247.47 15.819 248.027 16.6945 248.432 17.7581C248.837 18.8144 249.04 20.0733 249.04 21.5348V22.7395H235.376V20.0914H245.274C245.267 19.339 245.104 18.6697 244.786 18.0837C244.467 17.4904 244.022 17.0237 243.451 16.6837C242.886 16.3436 242.228 16.1736 241.476 16.1736C240.672 16.1736 239.967 16.3689 239.359 16.7596C238.751 17.1431 238.278 17.6495 237.938 18.279C237.605 18.9012 237.435 19.585 237.427 20.3302V22.6418C237.427 23.6113 237.605 24.4434 237.959 25.138C238.314 25.8253 238.809 26.3535 239.446 26.7225C240.083 27.0842 240.828 27.2651 241.682 27.2651C242.253 27.2651 242.771 27.1855 243.234 27.0263C243.697 26.8599 244.098 26.6176 244.438 26.2992C244.778 25.9809 245.035 25.5865 245.209 25.1163L248.877 25.5287C248.646 26.4982 248.204 27.3447 247.553 28.0682C246.909 28.7845 246.084 29.3416 245.079 29.7395C244.073 30.1302 242.923 30.3256 241.627 30.3256Z" fill="#0B41AD"/>
<path d="M265.339 24.6858C265.339 27.5873 263.546 29.8355 261.237 29.8355C260.083 29.8355 259.126 29.1823 258.837 28.1493L258.549 29.6836H257.181L259.111 18.7766H260.584L259.809 23.1363C260.432 22.1034 261.465 21.4805 262.513 21.4805C264.2 21.4805 265.339 22.7566 265.339 24.6858ZM263.805 24.8377C263.805 23.5769 263.106 22.8022 262.027 22.8022C260.387 22.8022 259.278 24.5947 259.278 26.4783C259.278 27.7088 259.992 28.5139 261.085 28.5139C262.635 28.5139 263.805 26.9189 263.805 24.8377ZM273.593 21.6325L267.745 32.6154H266.134L267.82 29.5773L266.21 21.6325H267.699L268.853 27.7999L271.998 21.6325H273.593ZM281.195 29.6836L279.388 21.2831L277.899 29.6836H276.41L278.339 18.7766H280.284L282.198 27.6936L287.272 18.7766H289.292L287.363 29.6836H285.874L287.378 21.2679L282.562 29.6836H281.195ZM293.104 29.8355C291.175 29.8355 289.717 28.5139 289.717 26.4024C289.717 23.5921 291.555 21.4805 293.97 21.4805C296.294 21.4805 297.418 23.4402 296.947 26.0226H291.266C291.251 26.1138 291.251 26.2201 291.251 26.3264C291.251 27.724 291.995 28.5747 293.226 28.5747C294.198 28.5747 294.866 28.0278 295.261 26.9492H296.765C296.112 28.9241 294.821 29.8355 293.104 29.8355ZM293.94 22.6654C292.648 22.6654 291.752 23.668 291.403 25.0352H295.611C295.763 23.6376 295.14 22.6654 293.94 22.6654ZM300.076 25.5517L299.332 29.6836H297.858L299.286 21.6325H300.654L300.335 23.349C301.048 22.2401 302.203 21.5261 303.661 21.5261L303.388 23.0756C301.686 22.9389 300.365 23.8503 300.076 25.5517ZM306.734 29.8355C304.865 29.8355 303.498 28.4076 303.498 26.4176C303.498 23.6073 305.306 21.4805 307.752 21.4805C309.605 21.4805 310.835 22.787 310.85 24.8681H309.347C309.316 23.5617 308.678 22.8022 307.63 22.8022C306.126 22.8022 305.032 24.3212 305.032 26.3264C305.032 27.648 305.762 28.5139 306.87 28.5139C307.919 28.5139 308.709 27.8303 309.134 26.4176H310.623C310.121 28.5595 308.693 29.8355 306.734 29.8355ZM315 29.8355C313.071 29.8355 311.613 28.5139 311.613 26.4024C311.613 23.5921 313.451 21.4805 315.866 21.4805C318.19 21.4805 319.314 23.4402 318.844 26.0226H313.162C313.147 26.1138 313.147 26.2201 313.147 26.3264C313.147 27.724 313.891 28.5747 315.122 28.5747C316.094 28.5747 316.762 28.0278 317.157 26.9492H318.661C318.008 28.9241 316.717 29.8355 315 29.8355ZM315.836 22.6654C314.545 22.6654 313.648 23.668 313.299 25.0352H317.507C317.659 23.6376 317.036 22.6654 315.836 22.6654ZM321.972 25.5517L321.228 29.6836H319.755L321.182 21.6325H322.55L322.231 23.349C322.945 22.2401 324.099 21.5261 325.557 21.5261L325.284 23.0756C323.583 22.9389 322.261 23.8503 321.972 25.5517Z" fill="#0B41AD"/>
</svg>
