<svg width="16" height="16" viewBox="0 0 16 16" fill="none" xmlns="http://www.w3.org/2000/svg">
<g clip-path="url(#clip0_22650_13559)">
<path d="M7.34447 1.87605C7.37304 1.72312 7.45419 1.58499 7.57387 1.4856C7.69355 1.3862 7.84423 1.33179 7.99981 1.33179C8.15538 1.33179 8.30606 1.3862 8.42574 1.4856C8.54542 1.58499 8.62657 1.72312 8.65514 1.87605L9.35581 5.58138C9.40557 5.84482 9.53359 6.08713 9.72316 6.2767C9.91273 6.46627 10.155 6.59429 10.4185 6.64405L14.1238 7.34472C14.2767 7.37328 14.4149 7.45443 14.5143 7.57412C14.6137 7.6938 14.6681 7.84447 14.6681 8.00005C14.6681 8.15563 14.6137 8.3063 14.5143 8.42599C14.4149 8.54567 14.2767 8.62682 14.1238 8.65538L10.4185 9.35605C10.155 9.40581 9.91273 9.53383 9.72316 9.7234C9.53359 9.91297 9.40557 10.1553 9.35581 10.4187L8.65514 14.1241C8.62657 14.277 8.54542 14.4151 8.42574 14.5145C8.30606 14.6139 8.15538 14.6683 7.99981 14.6683C7.84423 14.6683 7.69355 14.6139 7.57387 14.5145C7.45419 14.4151 7.37304 14.277 7.34447 14.1241L6.64381 10.4187C6.59404 10.1553 6.46602 9.91297 6.27645 9.7234C6.08688 9.53383 5.84457 9.40581 5.58114 9.35605L1.87581 8.65538C1.72287 8.62682 1.58475 8.54567 1.48535 8.42599C1.38595 8.3063 1.33154 8.15563 1.33154 8.00005C1.33154 7.84447 1.38595 7.6938 1.48535 7.57412C1.58475 7.45443 1.72287 7.37328 1.87581 7.34472L5.58114 6.64405C5.84457 6.59429 6.08688 6.46627 6.27645 6.2767C6.46602 6.08713 6.59404 5.84482 6.64381 5.58138L7.34447 1.87605Z" stroke="#030213" stroke-width="1.33333" stroke-linecap="round" stroke-linejoin="round"/>
<path d="M13.3335 1.33325V3.99992" stroke="#030213" stroke-width="1.33333" stroke-linecap="round" stroke-linejoin="round"/>
<path d="M14.6667 2.66675H12" stroke="#030213" stroke-width="1.33333" stroke-linecap="round" stroke-linejoin="round"/>
<path d="M2.66683 14.6667C3.40321 14.6667 4.00016 14.0697 4.00016 13.3333C4.00016 12.597 3.40321 12 2.66683 12C1.93045 12 1.3335 12.597 1.3335 13.3333C1.3335 14.0697 1.93045 14.6667 2.66683 14.6667Z" stroke="#030213" stroke-width="1.33333" stroke-linecap="round" stroke-linejoin="round"/>
</g>
<defs>
<clipPath id="clip0_22650_13559">
<rect width="16" height="16" fill="white"/>
</clipPath>
</defs>
</svg>
