<svg width="16" height="16" viewBox="0 0 16 16" fill="none" xmlns="http://www.w3.org/2000/svg">
<path d="M3.99984 14.6666C3.64622 14.6666 3.30708 14.5261 3.05703 14.2761C2.80698 14.026 2.6665 13.6869 2.6665 13.3333V2.66659C2.6665 2.31297 2.80698 1.97383 3.05703 1.72378C3.30708 1.47373 3.64622 1.33325 3.99984 1.33325H9.33317C9.54421 1.33291 9.75323 1.37432 9.94819 1.4551C10.1432 1.53588 10.3202 1.65443 10.4692 1.80392L12.8612 4.19592C13.0111 4.34493 13.13 4.52215 13.211 4.71736C13.292 4.91257 13.3335 5.1219 13.3332 5.33325V13.3333C13.3332 13.6869 13.1927 14.026 12.9426 14.2761C12.6926 14.5261 12.3535 14.6666 11.9998 14.6666H3.99984Z" stroke="#00A63E" stroke-width="1.33333" stroke-linecap="round" stroke-linejoin="round"/>
<path d="M9.3335 1.33325V4.66659C9.3335 4.8434 9.40373 5.01297 9.52876 5.13799C9.65378 5.26301 9.82335 5.33325 10.0002 5.33325H13.3335" stroke="#00A63E" stroke-width="1.33333" stroke-linecap="round" stroke-linejoin="round"/>
<path d="M5.3335 8.66675H6.66683" stroke="#00A63E" stroke-width="1.33333" stroke-linecap="round" stroke-linejoin="round"/>
<path d="M9.3335 8.66675H10.6668" stroke="#00A63E" stroke-width="1.33333" stroke-linecap="round" stroke-linejoin="round"/>
<path d="M5.3335 11.3333H6.66683" stroke="#00A63E" stroke-width="1.33333" stroke-linecap="round" stroke-linejoin="round"/>
<path d="M9.3335 11.3333H10.6668" stroke="#00A63E" stroke-width="1.33333" stroke-linecap="round" stroke-linejoin="round"/>
</svg>
