<svg width="16" height="16" viewBox="0 0 16 16" fill="none" xmlns="http://www.w3.org/2000/svg">
<g clip-path="url(#clip0_22650_10650)">
<path fill-rule="evenodd" clip-rule="evenodd" d="M1.069 5.55C1.44352 5.81273 1.88302 5.96752 2.33952 5.99747C2.79602 6.02743 3.25197 5.93139 3.65761 5.71985C4.06325 5.50832 4.40298 5.1894 4.6397 4.79793C4.87643 4.40646 5.00107 3.95748 5 3.5C4.99999 3.07025 4.8892 2.64777 4.67832 2.27332C4.46745 1.89887 4.16361 1.5851 3.79613 1.3623C3.42865 1.13949 3.00994 1.01518 2.58041 1.00136C2.15089 0.987535 1.72505 1.08467 1.34401 1.28338C0.962965 1.48209 0.639578 1.77568 0.405062 2.13579C0.170546 2.49591 0.03282 2.9104 0.00517768 3.33926C-0.0224647 3.76812 0.0609099 4.19686 0.247254 4.5841C0.433598 4.97134 0.716619 5.30401 1.069 5.55ZM2.5 4.5C2.76522 4.5 3.01957 4.39464 3.20711 4.20711C3.39464 4.01957 3.5 3.76522 3.5 3.5C3.5 3.23478 3.39464 2.98043 3.20711 2.79289C3.01957 2.60536 2.76522 2.5 2.5 2.5C2.23478 2.5 1.98043 2.60536 1.79289 2.79289C1.60536 2.98043 1.5 3.23478 1.5 3.5C1.5 3.76522 1.60536 4.01957 1.79289 4.20711C1.98043 4.39464 2.23478 4.5 2.5 4.5ZM13.5 6C13.1716 6.0004 12.8463 5.936 12.5428 5.8105C12.2393 5.68501 11.9636 5.50087 11.7314 5.26865C11.4991 5.03642 11.315 4.76067 11.1895 4.45718C11.064 4.15368 10.9996 3.82842 11 3.5C11 3.00555 11.1466 2.5222 11.4213 2.11108C11.696 1.69995 12.0865 1.37952 12.5433 1.1903C13.0001 1.00108 13.5028 0.951575 13.9877 1.04804C14.4727 1.1445 14.9181 1.3826 15.2678 1.73223C15.6174 2.08187 15.8555 2.52732 15.952 3.01228C16.0484 3.49723 15.9989 3.99989 15.8097 4.45671C15.6205 4.91352 15.3 5.30397 14.8889 5.57867C14.4778 5.85338 13.9945 6 13.5 6ZM14.5 3.5C14.5 3.76522 14.3946 4.01957 14.2071 4.20711C14.0196 4.39464 13.7652 4.5 13.5 4.5C13.2348 4.5 12.9804 4.39464 12.7929 4.20711C12.6054 4.01957 12.5 3.76522 12.5 3.5C12.5 3.23478 12.6054 2.98043 12.7929 2.79289C12.9804 2.60536 13.2348 2.5 13.5 2.5C13.7652 2.5 14.0196 2.60536 14.2071 2.79289C14.3946 2.98043 14.5 3.23478 14.5 3.5ZM6.069 8.55C6.44352 8.81273 6.88302 8.96752 7.33952 8.99747C7.79602 9.02743 8.25198 8.93139 8.65761 8.71985C9.06325 8.50832 9.40298 8.1894 9.63971 7.79793C9.87644 7.40646 10.0011 6.95748 10 6.5C9.99999 6.07025 9.8892 5.64777 9.67832 5.27332C9.46745 4.89887 9.16361 4.5851 8.79613 4.36229C8.42865 4.13949 8.00994 4.01518 7.58041 4.00136C7.15089 3.98754 6.72505 4.08467 6.34401 4.28338C5.96296 4.4821 5.63958 4.77568 5.40506 5.1358C5.17055 5.49591 5.03282 5.9104 5.00518 6.33926C4.97754 6.76812 5.06091 7.19686 5.24725 7.5841C5.4336 7.97134 5.71662 8.30401 6.069 8.55ZM7.5 7.5C7.76522 7.5 8.01957 7.39464 8.20711 7.20711C8.39464 7.01957 8.5 6.76522 8.5 6.5C8.5 6.23478 8.39464 5.98043 8.20711 5.79289C8.01957 5.60536 7.76522 5.5 7.5 5.5C7.23478 5.5 6.98043 5.60536 6.79289 5.79289C6.60536 5.98043 6.5 6.23478 6.5 6.5C6.5 6.76522 6.60536 7.01957 6.79289 7.20711C6.98043 7.39464 7.23478 7.5 7.5 7.5ZM12 14C11.6716 14.0004 11.3463 13.936 11.0428 13.8105C10.7393 13.685 10.4636 13.5009 10.2314 13.2686C9.99913 13.0364 9.81499 12.7607 9.6895 12.4572C9.564 12.1537 9.49961 11.8284 9.5 11.5C9.5 11.0055 9.64662 10.5222 9.92133 10.1111C10.196 9.69995 10.5865 9.37952 11.0433 9.1903C11.5001 9.00108 12.0028 8.95157 12.4877 9.04804C12.9727 9.1445 13.4181 9.3826 13.7678 9.73223C14.1174 10.0819 14.3555 10.5273 14.452 11.0123C14.5484 11.4972 14.4989 11.9999 14.3097 12.4567C14.1205 12.9135 13.8 13.304 13.3889 13.5787C12.9778 13.8534 12.4945 14 12 14ZM13 11.5C13 11.7652 12.8946 12.0196 12.7071 12.2071C12.5196 12.3946 12.2652 12.5 12 12.5C11.7348 12.5 11.4804 12.3946 11.2929 12.2071C11.1054 12.0196 11 11.7652 11 11.5C11 11.2348 11.1054 10.9804 11.2929 10.7929C11.4804 10.6054 11.7348 10.5 12 10.5C12.2652 10.5 12.5196 10.6054 12.7071 10.7929C12.8946 10.9804 13 11.2348 13 11.5ZM4.5 16C4.17159 16.0004 3.84632 15.936 3.54283 15.8105C3.23933 15.685 2.96358 15.5009 2.73135 15.2686C2.49913 15.0364 2.31499 14.7607 2.1895 14.4572C2.064 14.1537 1.99961 13.8284 2 13.5C2 13.0055 2.14662 12.5222 2.42133 12.1111C2.69603 11.7 3.08648 11.3795 3.54329 11.1903C4.00011 11.0011 4.50277 10.9516 4.98773 11.048C5.47268 11.1445 5.91814 11.3826 6.26777 11.7322C6.6174 12.0819 6.8555 12.5273 6.95196 13.0123C7.04843 13.4972 6.99892 13.9999 6.8097 14.4567C6.62048 14.9135 6.30005 15.304 5.88893 15.5787C5.4778 15.8534 4.99445 16 4.5 16ZM5.5 13.5C5.5 13.7652 5.39464 14.0196 5.20711 14.2071C5.01957 14.3946 4.76522 14.5 4.5 14.5C4.23478 14.5 3.98043 14.3946 3.79289 14.2071C3.60536 14.0196 3.5 13.7652 3.5 13.5C3.5 13.2348 3.60536 12.9804 3.79289 12.7929C3.98043 12.6054 4.23478 12.5 4.5 12.5C4.76522 12.5 5.01957 12.6054 5.20711 12.7929C5.39464 12.9804 5.5 13.2348 5.5 13.5Z" fill="#0B41AD"/>
</g>
<defs>
<clipPath id="clip0_22650_10650">
<rect width="16" height="16" fill="white"/>
</clipPath>
</defs>
</svg>
