<svg width="48" height="29" viewBox="0 0 48 29" fill="none" xmlns="http://www.w3.org/2000/svg">
<path d="M46.4731 6.12639L36.3719 0.307361C35.6605 -0.102454 34.4964 -0.102454 33.785 0.307361L5.91814 16.3606L21.339 4.54603L13.9811 0.307362C13.2697 -0.102454 12.1056 -0.102454 11.3942 0.307362L1.29295 6.12639C0.581548 6.5362 -0.000505775 7.54323 3.29799e-07 8.36336V19.9964C-0.000505736 20.8183 0.581548 21.8253 1.29295 22.2352L11.3942 28.0542C12.1056 28.464 13.2697 28.464 13.9811 28.0542L41.8479 12.0009L26.4271 23.8155L33.785 28.0542C34.4964 28.464 35.6605 28.464 36.3719 28.0542L46.4731 22.2352C47.1845 21.8253 47.7666 20.8183 47.7666 19.9973V8.36423C47.7666 7.54323 47.1845 6.5362 46.4731 6.12639Z" fill="#0B41AD"/>
</svg>
