<svg width="16" height="16" viewBox="0 0 16 16" fill="none" xmlns="http://www.w3.org/2000/svg">
<path d="M8.00004 8.66671C8.36823 8.66671 8.66671 8.36823 8.66671 8.00004C8.66671 7.63185 8.36823 7.33337 8.00004 7.33337C7.63185 7.33337 7.33337 7.63185 7.33337 8.00004C7.33337 8.36823 7.63185 8.66671 8.00004 8.66671Z" stroke="#0A0A0A" stroke-width="1.33333" stroke-linecap="round" stroke-linejoin="round"/>
<path d="M8.00004 3.99996C8.36823 3.99996 8.66671 3.70148 8.66671 3.33329C8.66671 2.9651 8.36823 2.66663 8.00004 2.66663C7.63185 2.66663 7.33337 2.9651 7.33337 3.33329C7.33337 3.70148 7.63185 3.99996 8.00004 3.99996Z" stroke="#0A0A0A" stroke-width="1.33333" stroke-linecap="round" stroke-linejoin="round"/>
<path d="M8.00004 13.3333C8.36823 13.3333 8.66671 13.0349 8.66671 12.6667C8.66671 12.2985 8.36823 12 8.00004 12C7.63185 12 7.33337 12.2985 7.33337 12.6667C7.33337 13.0349 7.63185 13.3333 8.00004 13.3333Z" stroke="#0A0A0A" stroke-width="1.33333" stroke-linecap="round" stroke-linejoin="round"/>
</svg>
