<svg width="16" height="16" viewBox="0 0 16 16" fill="none" xmlns="http://www.w3.org/2000/svg">
<path fill-rule="evenodd" clip-rule="evenodd" d="M7.375 3.67C7.375 3.025 6.815 2.5 6.125 2.5C5.435 2.5 4.875 3.025 4.875 3.67C4.875 4.316 5.435 4.84 6.125 4.84C6.815 4.84 7.375 4.316 7.375 3.67ZM7.375 12.33C7.375 11.684 6.815 11.16 6.125 11.16C5.435 11.16 4.875 11.684 4.875 12.33C4.875 12.976 5.435 13.5 6.125 13.5C6.815 13.5 7.375 12.975 7.375 12.33ZM6.125 6.83C6.815 6.83 7.375 7.355 7.375 8C7.375 8.645 6.815 9.17 6.125 9.17C5.435 9.17 4.875 8.645 4.875 8C4.875 7.355 5.435 6.83 6.125 6.83ZM11.125 3.67C11.125 3.025 10.565 2.5 9.875 2.5C9.185 2.5 8.625 3.025 8.625 3.67C8.625 4.316 9.185 4.84 9.875 4.84C10.565 4.84 11.125 4.316 11.125 3.67ZM9.875 11.16C10.565 11.16 11.125 11.684 11.125 12.33C11.125 12.976 10.565 13.5 9.875 13.5C9.185 13.5 8.625 12.975 8.625 12.33C8.625 11.684 9.185 11.16 9.875 11.16ZM11.125 8C11.125 7.355 10.565 6.83 9.875 6.83C9.185 6.83 8.625 7.355 8.625 8C8.625 8.645 9.185 9.17 9.875 9.17C10.565 9.17 11.125 8.645 11.125 8Z" fill="white"/>
</svg>
