<svg width="24" height="24" viewBox="0 0 24 24" fill="none" xmlns="http://www.w3.org/2000/svg">
<path d="M7.01675 14.3987H10.866V18.0248C10.866 19.097 11.3273 20 11.5072 20C11.6804 20 12.1417 19.097 12.1417 18.0248V14.3987H15.9836C16.4809 14.3987 16.8416 14.088 16.8416 13.6155C16.8416 13.3193 16.7475 13.1077 16.5387 12.8889L14.333 10.5468C14.1816 10.3915 14.0878 10.2789 14.1238 9.98931L14.4917 7.41455C14.5132 7.26646 14.5276 7.18158 14.6645 7.09007L16.4304 5.8343C16.8272 5.55196 17 5.20641 17 4.88886C17 4.41628 16.6106 4 16.0558 4H6.94417C6.38935 4 6 4.41628 6 4.88886C6 5.20641 6.17315 5.55196 6.56219 5.834L8.3355 7.09007C8.47236 7.18158 8.48682 7.26616 8.50835 7.41455L8.87617 9.98931C8.91923 10.2786 8.81835 10.3915 8.66704 10.5468L6.46132 12.8889C6.25219 13.1077 6.15869 13.3193 6.15869 13.6155C6.15869 14.088 6.51914 14.3987 7.01644 14.3987M7.95353 13.2627C7.88864 13.2627 7.84528 13.2206 7.84528 13.157C7.84528 13.1149 7.87419 13.0722 7.91017 13.0369L9.75545 11.1467C9.99349 10.9137 10.087 10.6596 10.0584 10.3987L9.61121 6.99827C9.57522 6.72315 9.48142 6.51847 9.2726 6.3773L7.70842 5.36143C7.65798 5.32621 7.64353 5.29099 7.64353 5.24163C7.64353 5.17812 7.69396 5.13568 7.75886 5.13568H15.2408C15.3057 5.13568 15.3562 5.17782 15.3562 5.24163C15.3562 5.29099 15.3417 5.32621 15.2916 5.36143L13.7271 6.3773C13.518 6.51877 13.4245 6.72315 13.3885 6.99827L12.9419 10.3987C12.913 10.6596 13.0065 10.9134 13.2372 11.1464L15.0898 13.0369C15.1244 13.068 15.1451 13.1112 15.1473 13.157C15.1473 13.2203 15.1114 13.2627 15.0465 13.2627H7.95353Z" fill="black"/>
</svg>
