<svg width="18" height="18" viewBox="0 0 18 18" fill="none" xmlns="http://www.w3.org/2000/svg">
<path d="M9 1.5C7.51664 1.5 6.06659 1.93987 4.83323 2.76398C3.59986 3.58809 2.63856 4.75943 2.07091 6.12987C1.50325 7.50032 1.35472 9.00832 1.64411 10.4632C1.9335 11.918 2.64781 13.2544 3.6967 14.3033C4.7456 15.3522 6.08197 16.0665 7.53683 16.3559C8.99168 16.6453 10.4997 16.4967 11.8701 15.9291C13.2406 15.3614 14.4119 14.4001 15.236 13.1668C16.0601 11.9334 16.5 10.4834 16.5 9C16.4942 7.01265 15.7022 5.10835 14.2969 3.70307C12.8917 2.2978 10.9873 1.50577 9 1.5ZM12.0938 11.21L11.21 12.0937L9 9.88375L6.79 12.0937L5.90625 11.21L8.11625 9L5.90625 6.79L6.79 5.90625L9 8.11625L11.21 5.90625L12.0938 6.79L9.88375 9L12.0938 11.21Z" fill="white"/>
</svg>
