<svg width="16" height="16" viewBox="0 0 16 16" fill="none" xmlns="http://www.w3.org/2000/svg">
<path d="M6.44754 2.75711C6.48427 2.37067 6.66376 2.01181 6.95094 1.75063C7.23812 1.48945 7.61235 1.34473 8.00054 1.34473C8.38872 1.34473 8.76296 1.48945 9.05014 1.75063C9.33732 2.01181 9.5168 2.37067 9.55354 2.75711C9.57561 3.00675 9.65751 3.24739 9.79229 3.45867C9.92707 3.66995 10.1108 3.84565 10.3278 3.97089C10.5449 4.09614 10.789 4.16724 11.0393 4.17819C11.2897 4.18913 11.539 4.1396 11.7662 4.03378C12.1189 3.87363 12.5187 3.85045 12.8875 3.96877C13.2564 4.08708 13.5681 4.33841 13.7619 4.67385C13.9557 5.00928 14.0177 5.40482 13.936 5.78349C13.8542 6.16216 13.6345 6.49685 13.3195 6.72244C13.1145 6.86634 12.9471 7.05751 12.8315 7.27979C12.7159 7.50207 12.6556 7.74891 12.6556 7.99944C12.6556 8.24997 12.7159 8.49681 12.8315 8.71909C12.9471 8.94137 13.1145 9.13254 13.3195 9.27644C13.6345 9.50203 13.8542 9.83673 13.936 10.2154C14.0177 10.5941 13.9557 10.9896 13.7619 11.325C13.5681 11.6605 13.2564 11.9118 12.8875 12.0301C12.5187 12.1484 12.1189 12.1253 11.7662 11.9651C11.539 11.8593 11.2897 11.8097 11.0393 11.8207C10.789 11.8316 10.5449 11.9027 10.3278 12.028C10.1108 12.1532 9.92707 12.3289 9.79229 12.5402C9.65751 12.7515 9.57561 12.9921 9.55354 13.2418C9.5168 13.6282 9.33732 13.9871 9.05014 14.2483C8.76296 14.5094 8.38872 14.6542 8.00054 14.6542C7.61235 14.6542 7.23812 14.5094 6.95094 14.2483C6.66376 13.9871 6.48427 13.6282 6.44754 13.2418C6.4255 12.9921 6.3436 12.7513 6.20878 12.54C6.07396 12.3286 5.89018 12.1529 5.67302 12.0276C5.45586 11.9023 5.21172 11.8313 4.96126 11.8204C4.7108 11.8095 4.4614 11.8591 4.2342 11.9651C3.88146 12.1253 3.48175 12.1484 3.11287 12.0301C2.74399 11.9118 2.43232 11.6605 2.23853 11.325C2.04473 10.9896 1.98268 10.5941 2.06444 10.2154C2.14621 9.83673 2.36594 9.50203 2.68087 9.27644C2.88595 9.13254 3.05336 8.94137 3.16893 8.71909C3.2845 8.49681 3.34484 8.24997 3.34484 7.99944C3.34484 7.74891 3.2845 7.50207 3.16893 7.27979C3.05336 7.05751 2.88595 6.86634 2.68087 6.72244C2.36638 6.49674 2.14704 6.16217 2.06547 5.78376C1.9839 5.40535 2.04594 5.01014 2.23953 4.67492C2.43311 4.3397 2.74441 4.08843 3.11293 3.96994C3.48145 3.85144 3.88086 3.8742 4.23354 4.03378C4.46071 4.1396 4.71003 4.18913 4.9604 4.17819C5.21078 4.16724 5.45482 4.09614 5.67189 3.97089C5.88896 3.84565 6.07266 3.66995 6.20745 3.45867C6.34223 3.24739 6.42413 3.00675 6.4462 2.75711" stroke="#0A0A0A" stroke-width="1.33333" stroke-linecap="round" stroke-linejoin="round"/>
<path d="M8 10C9.10457 10 10 9.10457 10 8C10 6.89543 9.10457 6 8 6C6.89543 6 6 6.89543 6 8C6 9.10457 6.89543 10 8 10Z" stroke="#0A0A0A" stroke-width="1.33333" stroke-linecap="round" stroke-linejoin="round"/>
</svg>
