<svg width="16" height="16" viewBox="0 0 16 16" fill="none" xmlns="http://www.w3.org/2000/svg">
<path d="M7.34472 1.87605C7.37328 1.72312 7.45443 1.58499 7.57412 1.4856C7.6938 1.3862 7.84447 1.33179 8.00005 1.33179C8.15563 1.33179 8.3063 1.3862 8.42599 1.4856C8.54567 1.58499 8.62682 1.72312 8.65538 1.87605L9.35605 5.58138C9.40581 5.84482 9.53383 6.08713 9.7234 6.2767C9.91297 6.46627 10.1553 6.59429 10.4187 6.64405L14.1241 7.34472C14.277 7.37328 14.4151 7.45443 14.5145 7.57412C14.6139 7.6938 14.6683 7.84447 14.6683 8.00005C14.6683 8.15563 14.6139 8.3063 14.5145 8.42599C14.4151 8.54567 14.277 8.62682 14.1241 8.65538L10.4187 9.35605C10.1553 9.40581 9.91297 9.53383 9.7234 9.7234C9.53383 9.91297 9.40581 10.1553 9.35605 10.4187L8.65538 14.1241C8.62682 14.277 8.54567 14.4151 8.42599 14.5145C8.3063 14.6139 8.15563 14.6683 8.00005 14.6683C7.84447 14.6683 7.6938 14.6139 7.57412 14.5145C7.45443 14.4151 7.37328 14.277 7.34472 14.1241L6.64405 10.4187C6.59429 10.1553 6.46627 9.91297 6.2767 9.7234C6.08713 9.53383 5.84482 9.40581 5.58138 9.35605L1.87605 8.65538C1.72312 8.62682 1.58499 8.54567 1.4856 8.42599C1.3862 8.3063 1.33179 8.15563 1.33179 8.00005C1.33179 7.84447 1.3862 7.6938 1.4856 7.57412C1.58499 7.45443 1.72312 7.37328 1.87605 7.34472L5.58138 6.64405C5.84482 6.59429 6.08713 6.46627 6.2767 6.2767C6.46627 6.08713 6.59429 5.84482 6.64405 5.58138L7.34472 1.87605Z" stroke="#0B41AD" stroke-width="1.33333" stroke-linecap="round" stroke-linejoin="round"/>
<path d="M13.3333 1.33337V4.00004" stroke="#0B41AD" stroke-width="1.33333" stroke-linecap="round" stroke-linejoin="round"/>
<path d="M14.6667 2.66663H12" stroke="#0B41AD" stroke-width="1.33333" stroke-linecap="round" stroke-linejoin="round"/>
<path d="M2.66659 14.6667C3.40297 14.6667 3.99992 14.0697 3.99992 13.3333C3.99992 12.597 3.40297 12 2.66659 12C1.93021 12 1.33325 12.597 1.33325 13.3333C1.33325 14.0697 1.93021 14.6667 2.66659 14.6667Z" stroke="#0B41AD" stroke-width="1.33333" stroke-linecap="round" stroke-linejoin="round"/>
</svg>
