<svg width="16" height="16" viewBox="0 0 16 16" fill="none" xmlns="http://www.w3.org/2000/svg">
<g clip-path="url(#clip0_22650_10448)">
<path d="M11.7174 6.98669C11.7985 6.88443 11.8364 6.75451 11.8231 6.62466C11.8097 6.49482 11.7461 6.37536 11.6458 6.29179C11.5455 6.20823 11.4165 6.16719 11.2864 6.17745C11.1563 6.18771 11.0353 6.24844 10.9494 6.34669L9.75137 7.78402C9.5047 8.08069 9.35204 8.26135 9.22737 8.37402C9.19476 8.40565 9.15824 8.43298 9.11871 8.45535L9.11137 8.45869L9.10404 8.45535C9.06427 8.43303 9.02752 8.40569 8.99471 8.37402C8.87004 8.26069 8.71804 8.08069 8.47071 7.78402L8.27604 7.55069C8.05737 7.28735 7.85937 7.05069 7.67537 6.88402C7.4747 6.70269 7.22204 6.54135 6.88871 6.54135C6.55537 6.54135 6.30337 6.70269 6.10204 6.88402C5.91804 7.05069 5.72071 7.28735 5.50204 7.55069L4.28204 9.01335C4.24002 9.06382 4.20835 9.12208 4.18884 9.18479C4.16933 9.2475 4.16236 9.31344 4.16833 9.37884C4.1804 9.51093 4.24444 9.63282 4.34637 9.71769C4.4483 9.80256 4.57977 9.84346 4.71186 9.83139C4.84395 9.81933 4.96584 9.75528 5.05071 9.65335L6.24871 8.21602C6.49537 7.91935 6.64804 7.73869 6.77271 7.62602C6.80532 7.59439 6.84183 7.56706 6.88137 7.54469L6.88871 7.54135L6.89604 7.54469C6.93581 7.56701 6.97256 7.59434 7.00537 7.62602C7.13004 7.73935 7.28204 7.91935 7.52937 8.21602L7.72404 8.44935C7.94337 8.71269 8.14071 8.94935 8.32471 9.11602C8.52537 9.29735 8.77804 9.45869 9.11137 9.45869C9.44471 9.45869 9.6967 9.29735 9.89804 9.11602C10.082 8.94935 10.2794 8.71269 10.498 8.44935L11.7174 6.98669Z" fill="#0B41AD"/>
<path fill-rule="evenodd" clip-rule="evenodd" d="M7.96192 0.833374C6.42259 0.833374 5.21659 0.833374 4.27525 0.960041C3.31259 1.08937 2.55259 1.36004 1.95592 1.95604C1.35925 2.55271 1.08925 3.31271 0.959919 4.27604C0.833252 5.21671 0.833252 6.42271 0.833252 7.96204V8.03804C0.833252 9.57737 0.833252 10.7834 0.959919 11.7247C1.08925 12.6874 1.35992 13.4474 1.95592 14.044C2.55259 14.6407 3.31259 14.9107 4.27592 15.04C5.21659 15.1667 6.42259 15.1667 7.96192 15.1667H8.03792C9.57725 15.1667 10.7833 15.1667 11.7246 15.04C12.6873 14.9107 13.4473 14.64 14.0439 14.044C14.6406 13.4474 14.9106 12.6874 15.0399 11.724C15.1666 10.7834 15.1666 9.57737 15.1666 8.03804V7.96204C15.1666 6.42271 15.1666 5.21671 15.0399 4.27537C14.9106 3.31271 14.6399 2.55271 14.0439 1.95604C13.4473 1.35937 12.6873 1.08937 11.7239 0.960041C10.7833 0.833374 9.57725 0.833374 8.03792 0.833374H7.96192ZM2.66325 2.66337C3.04325 2.28337 3.55659 2.06537 4.40925 1.95071C5.27592 1.83471 6.41459 1.83337 7.99992 1.83337C9.58525 1.83337 10.7239 1.83471 11.5906 1.95071C12.4433 2.06537 12.9573 2.28404 13.3373 2.66337C13.7166 3.04337 13.9346 3.55671 14.0493 4.40937C14.1653 5.27604 14.1666 6.41471 14.1666 8.00004C14.1666 9.58537 14.1653 10.724 14.0493 11.5907C13.9346 12.4434 13.7159 12.9574 13.3366 13.3374C12.9566 13.7167 12.4433 13.9347 11.5906 14.0494C10.7239 14.1654 9.58525 14.1667 7.99992 14.1667C6.41459 14.1667 5.27592 14.1654 4.40925 14.0494C3.55659 13.9347 3.04259 13.716 2.66259 13.3367C2.28325 12.9567 2.06525 12.4434 1.95059 11.5907C1.83459 10.724 1.83325 9.58537 1.83325 8.00004C1.83325 6.41471 1.83459 5.27604 1.95059 4.40937C2.06525 3.55671 2.28392 3.04337 2.66325 2.66337Z" fill="#0B41AD"/>
</g>
<defs>
<clipPath id="clip0_22650_10448">
<rect width="16" height="16" fill="white"/>
</clipPath>
</defs>
</svg>
